<?xml version="1.0" encoding="UTF-8"?><svg id="Calque_2" xmlns="http://www.w3.org/2000/svg" viewBox="0 0 26.85 29.19"><defs><style>.cls-1{fill:#008d76;}</style></defs><g id="Calque_1-2"><path class="cls-1" d="M13.67,0C4.61,0,0,4.77,0,14.11c0,4.82,1.37,9.1,3.64,11.63,2.04,2.29,5.21,3.45,9.5,3.45s7.97-1.32,10.17-3.8c2.18-2.48,3.54-6.76,3.54-11.23C26.85,4.73,22.42,0,13.67,0Zm1.87,6.22c.71,1,1.3,1.88,1.95,2.72,1.41,1.83,.61,4.22-1.65,4.61-.39,.07-1.16-.6-1.33-1.08-.67-1.88-.36-3.34,1.03-6.25Zm-6.64,3.65c.63-1.27,1.62-2.37,2.99-4.27,.3,2.31,.65,4.07,.7,5.84,.02,.72-.6,1.45-.93,2.18-.83-.49-1.84-.84-2.42-1.53-.42-.5-.61-1.64-.33-2.21Zm-2.45,9.23c-.36-.92-1.07-1.86-1.01-2.75,.09-1.34,.72-2.65,1.17-4.15,3.01,1.88,3.81,4.07,2.11,5.79-.56,.57-1.51,.75-2.28,1.11Zm9.09,4.27c-1.36,.08-2.72,.21-4.09,.23-2.14,.02-3.23-1.59-2.08-3.39,1.13-1.77,2.7-3.26,4.08-4.87,1.42,1.67,3.03,3.21,4.2,5.04,1.06,1.65-.08,3.2-2.11,3Zm5.1-4.43c-.05,.12-1.49,.03-1.7-.33-.62-1.01-1.48-2.32-1.26-3.3,.28-1.25,1.52-2.28,2.52-3.64,.51,1.66,1.11,2.89,1.21,4.15,.08,1.02-.38,2.11-.77,3.11Z"/></g></svg>