<?xml version="1.0" encoding="UTF-8"?><svg id="Calque_2" xmlns="http://www.w3.org/2000/svg" viewBox="0 0 60.39 17.68"><defs><style>.cls-1{fill:#008d76;}</style></defs><g id="Calque_1-2"><g><path class="cls-1" d="M0,.25H3.95V3.34c0,.61-.02,.86-.1,1.58h.1c.36-.82,.63-1.18,1.11-1.53,.61-.44,1.39-.67,2.31-.67,2.73,0,4.3,2.12,4.3,5.79,0,4.09-1.91,6.8-4.81,6.8-1.55,0-2.5-.61-3.32-2.16h-.08c.04,.48,.08,1.03,.08,1.3v.44H0V.25ZM3.61,9.18c0,1.66,.88,2.77,2.2,2.77s2.08-1.07,2.08-2.86-.69-2.67-2.06-2.67-2.23,1.05-2.23,2.75Z"/><path class="cls-1" d="M17.53,1.41c0,.86-.86,1.36-2.39,1.36s-2.31-.5-2.31-1.38,.82-1.39,2.31-1.39c1.64,0,2.39,.44,2.39,1.41Zm-4.33,1.72c.71,.27,1.18,.36,1.91,.36s1.28-.11,2.04-.36V14.89h-3.95V3.13Z"/><path class="cls-1" d="M24.67,2.71c-3.91,0-5.9,2.06-5.9,6.09,0,2.08,.59,3.93,1.57,5.02,.88,.99,2.25,1.49,4.1,1.49s3.44-.57,4.39-1.64c.94-1.07,1.53-2.92,1.53-4.85,0-4.07-1.91-6.11-5.69-6.11Zm.81,2.68c.31,.43,.56,.81,.84,1.17,.61,.79,.26,1.82-.71,1.99-.17,.03-.5-.26-.58-.47-.29-.81-.15-1.44,.45-2.7Zm-2.87,1.58c.27-.55,.7-1.02,1.29-1.84,.13,1,.28,1.76,.3,2.52,0,.31-.26,.63-.4,.94-.36-.21-.79-.36-1.05-.66-.18-.22-.26-.71-.14-.96Zm-1.06,3.98c-.16-.4-.46-.8-.43-1.19,.04-.58,.31-1.14,.51-1.79,1.3,.81,1.64,1.76,.91,2.5-.24,.25-.65,.33-.99,.48Zm3.92,1.84c-.59,.03-1.18,.09-1.76,.1-.92,.01-1.39-.68-.9-1.47,.49-.76,1.17-1.41,1.76-2.1,.61,.72,1.31,1.39,1.81,2.17,.46,.71-.03,1.38-.91,1.3Zm2.2-1.91c-.02,.05-.64,.01-.74-.14-.27-.44-.64-1-.54-1.42,.12-.54,.66-.98,1.09-1.57,.22,.72,.48,1.25,.52,1.79,.03,.44-.16,.91-.33,1.34Z"/><path class="cls-1" d="M31.81,3.13h3.59v.78q0,.48-.13,1.51h.13c.4-.97,.67-1.37,1.15-1.81,.67-.57,1.68-.9,2.75-.9,2.77,0,4.24,1.99,4.24,5.71,0,4.22-1.78,6.89-4.62,6.89-1.55,0-2.41-.57-3.28-2.14h-.13c.17,.92,.21,1.62,.23,2.58v1.93h-3.95V3.13Zm3.55,5.9c0,1.83,.82,2.94,2.14,2.94s2.27-1.22,2.27-3.02c0-1.68-.78-2.65-2.12-2.65s-2.29,1.05-2.29,2.73Z"/><path class="cls-1" d="M49.41,1.41c0,.86-.86,1.36-2.39,1.36s-2.31-.5-2.31-1.38,.82-1.39,2.31-1.39c1.64,0,2.39,.44,2.39,1.41Zm-4.33,1.72c.71,.27,1.18,.36,1.91,.36s1.28-.11,2.04-.36V14.89h-3.95V3.13Z"/><path class="cls-1" d="M60.39,8.15h-.15c-.84-1.18-1.89-1.72-3.28-1.72-1.68,0-2.62,1.01-2.62,2.81,0,2,.97,3.07,2.75,3.07,1.39,0,2.48-.69,3.15-2.02h.15c-.02,.78-.04,1.26-.04,1.76,0,.23,.02,.78,.04,1.38-.97,1.32-2.18,1.87-4.14,1.87-1.81,0-3.07-.46-4.01-1.49-1.07-1.16-1.68-2.96-1.68-5.02,0-3.78,2.16-6.09,5.71-6.09,1.81,0,2.96,.5,4.12,1.76v3.67Z"/></g></g></svg>